<mxfile host="app.diagrams.net" modified="2024-03-27T16:36:43.724Z" agent="Mozilla/5.0 (Windows NT 10.0; Win64; x64) AppleWebKit/537.36 (KHTML, like Gecko) Chrome/123.0.0.0 Safari/537.36" etag="kRSnvnmIPM2Z2_eHUKOF" version="24.2.0" type="github">
  <diagram name="Page-1" id="b5b7bab2-c9e2-2cf4-8b2a-24fd1a2a6d21">
    <mxGraphModel dx="1179" dy="448" grid="1" gridSize="10" guides="1" tooltips="1" connect="1" arrows="1" fold="1" page="1" pageScale="1" pageWidth="827" pageHeight="1169" background="none" math="0" shadow="0">
      <root>
        <mxCell id="0" />
        <mxCell id="1" parent="0" />
        <mxCell id="HwC7duI9NQPxEm3EM6SP-4" value="cantidad" style="ellipse;whiteSpace=wrap;html=1;" vertex="1" parent="1">
          <mxGeometry x="250" y="48" width="60" height="50" as="geometry" />
        </mxCell>
        <mxCell id="HwC7duI9NQPxEm3EM6SP-5" value="" style="endArrow=none;html=1;rounded=0;exitX=0.092;exitY=-0.033;exitDx=0;exitDy=0;entryX=1;entryY=1;entryDx=0;entryDy=0;exitPerimeter=0;" edge="1" parent="1" source="HwC7duI9NQPxEm3EM6SP-10" target="HwC7duI9NQPxEm3EM6SP-4">
          <mxGeometry width="50" height="50" relative="1" as="geometry">
            <mxPoint x="10" y="200" as="sourcePoint" />
            <mxPoint x="290" y="90" as="targetPoint" />
            <Array as="points" />
          </mxGeometry>
        </mxCell>
        <mxCell id="HwC7duI9NQPxEm3EM6SP-10" value="Vacuna" style="rounded=1;whiteSpace=wrap;html=1;strokeWidth=2;" vertex="1" parent="1">
          <mxGeometry x="310" y="120" width="120" height="60" as="geometry" />
        </mxCell>
        <mxCell id="HwC7duI9NQPxEm3EM6SP-12" value="" style="endArrow=none;html=1;rounded=0;exitX=1;exitY=0.75;exitDx=0;exitDy=0;entryX=0;entryY=0.5;entryDx=0;entryDy=0;" edge="1" parent="1" source="HwC7duI9NQPxEm3EM6SP-10" target="HwC7duI9NQPxEm3EM6SP-15">
          <mxGeometry width="50" height="50" relative="1" as="geometry">
            <mxPoint x="323" y="180" as="sourcePoint" />
            <mxPoint x="310" y="221" as="targetPoint" />
          </mxGeometry>
        </mxCell>
        <mxCell id="HwC7duI9NQPxEm3EM6SP-13" value="dosis" style="ellipse;whiteSpace=wrap;html=1;" vertex="1" parent="1">
          <mxGeometry x="460" y="60" width="60" height="50" as="geometry" />
        </mxCell>
        <mxCell id="HwC7duI9NQPxEm3EM6SP-14" value="" style="endArrow=none;html=1;rounded=0;exitX=1;exitY=0;exitDx=0;exitDy=0;entryX=0;entryY=1;entryDx=0;entryDy=0;" edge="1" parent="1" target="HwC7duI9NQPxEm3EM6SP-13" source="HwC7duI9NQPxEm3EM6SP-10">
          <mxGeometry width="50" height="50" relative="1" as="geometry">
            <mxPoint x="353" y="180" as="sourcePoint" />
            <mxPoint x="320" y="231" as="targetPoint" />
            <Array as="points" />
          </mxGeometry>
        </mxCell>
        <mxCell id="HwC7duI9NQPxEm3EM6SP-15" value="&lt;u&gt;&lt;b&gt;lote&lt;/b&gt;&lt;/u&gt;" style="ellipse;whiteSpace=wrap;html=1;" vertex="1" parent="1">
          <mxGeometry x="490" y="140" width="60" height="50" as="geometry" />
        </mxCell>
        <mxCell id="HwC7duI9NQPxEm3EM6SP-17" value="proveedor" style="ellipse;whiteSpace=wrap;html=1;" vertex="1" parent="1">
          <mxGeometry x="333" y="50" width="60" height="50" as="geometry" />
        </mxCell>
        <mxCell id="HwC7duI9NQPxEm3EM6SP-18" value="" style="endArrow=none;html=1;rounded=0;exitX=0.45;exitY=-0.05;exitDx=0;exitDy=0;entryX=0.5;entryY=1;entryDx=0;entryDy=0;exitPerimeter=0;" edge="1" parent="1" target="HwC7duI9NQPxEm3EM6SP-17" source="HwC7duI9NQPxEm3EM6SP-10">
          <mxGeometry width="50" height="50" relative="1" as="geometry">
            <mxPoint x="330" y="120" as="sourcePoint" />
            <mxPoint x="310" y="41" as="targetPoint" />
            <Array as="points" />
          </mxGeometry>
        </mxCell>
        <mxCell id="HwC7duI9NQPxEm3EM6SP-19" value="origen" style="ellipse;whiteSpace=wrap;html=1;" vertex="1" parent="1">
          <mxGeometry x="290" width="45" height="40" as="geometry" />
        </mxCell>
        <mxCell id="HwC7duI9NQPxEm3EM6SP-20" value="nombre" style="ellipse;whiteSpace=wrap;html=1;" vertex="1" parent="1">
          <mxGeometry x="347.5" width="45" height="40" as="geometry" />
        </mxCell>
        <mxCell id="HwC7duI9NQPxEm3EM6SP-21" value="pais" style="ellipse;whiteSpace=wrap;html=1;" vertex="1" parent="1">
          <mxGeometry x="400" y="8" width="45" height="40" as="geometry" />
        </mxCell>
        <mxCell id="HwC7duI9NQPxEm3EM6SP-22" value="" style="endArrow=none;html=1;rounded=0;exitX=0.5;exitY=0;exitDx=0;exitDy=0;entryX=0.5;entryY=1;entryDx=0;entryDy=0;" edge="1" parent="1" source="HwC7duI9NQPxEm3EM6SP-17" target="HwC7duI9NQPxEm3EM6SP-20">
          <mxGeometry width="50" height="50" relative="1" as="geometry">
            <mxPoint x="310" y="90" as="sourcePoint" />
            <mxPoint x="360" y="40" as="targetPoint" />
          </mxGeometry>
        </mxCell>
        <mxCell id="HwC7duI9NQPxEm3EM6SP-23" value="" style="endArrow=none;html=1;rounded=0;exitX=0;exitY=0;exitDx=0;exitDy=0;entryX=1;entryY=1;entryDx=0;entryDy=0;" edge="1" parent="1" source="HwC7duI9NQPxEm3EM6SP-17" target="HwC7duI9NQPxEm3EM6SP-19">
          <mxGeometry width="50" height="50" relative="1" as="geometry">
            <mxPoint x="260" y="100" as="sourcePoint" />
            <mxPoint x="310" y="40" as="targetPoint" />
          </mxGeometry>
        </mxCell>
        <mxCell id="HwC7duI9NQPxEm3EM6SP-24" value="" style="endArrow=none;html=1;rounded=0;entryX=0;entryY=1;entryDx=0;entryDy=0;exitX=1;exitY=0;exitDx=0;exitDy=0;" edge="1" parent="1" source="HwC7duI9NQPxEm3EM6SP-17" target="HwC7duI9NQPxEm3EM6SP-21">
          <mxGeometry width="50" height="50" relative="1" as="geometry">
            <mxPoint x="360" y="190" as="sourcePoint" />
            <mxPoint x="410" y="140" as="targetPoint" />
          </mxGeometry>
        </mxCell>
        <mxCell id="HwC7duI9NQPxEm3EM6SP-25" value="pertenece" style="rhombus;whiteSpace=wrap;html=1;rotation=0;" vertex="1" parent="1">
          <mxGeometry x="330" y="200" width="80" height="80" as="geometry" />
        </mxCell>
        <mxCell id="HwC7duI9NQPxEm3EM6SP-26" value="" style="endArrow=none;html=1;rounded=0;exitX=0.5;exitY=1;exitDx=0;exitDy=0;" edge="1" parent="1" source="HwC7duI9NQPxEm3EM6SP-25">
          <mxGeometry width="50" height="50" relative="1" as="geometry">
            <mxPoint x="445" y="350" as="sourcePoint" />
            <mxPoint x="370" y="330" as="targetPoint" />
          </mxGeometry>
        </mxCell>
        <mxCell id="HwC7duI9NQPxEm3EM6SP-27" value="&lt;b&gt;1&lt;/b&gt;" style="text;html=1;align=center;verticalAlign=middle;resizable=0;points=[];autosize=1;strokeColor=none;fillColor=none;" vertex="1" parent="1">
          <mxGeometry x="378" y="190" width="30" height="30" as="geometry" />
        </mxCell>
        <mxCell id="HwC7duI9NQPxEm3EM6SP-28" value="&lt;b&gt;n&lt;/b&gt;" style="text;html=1;align=center;verticalAlign=middle;resizable=0;points=[];autosize=1;strokeColor=none;fillColor=none;" vertex="1" parent="1">
          <mxGeometry x="380" y="260" width="30" height="30" as="geometry" />
        </mxCell>
        <mxCell id="HwC7duI9NQPxEm3EM6SP-29" value="" style="endArrow=none;html=1;rounded=0;exitX=0.5;exitY=0;exitDx=0;exitDy=0;entryX=0.5;entryY=1;entryDx=0;entryDy=0;" edge="1" parent="1" source="HwC7duI9NQPxEm3EM6SP-25" target="HwC7duI9NQPxEm3EM6SP-10">
          <mxGeometry width="50" height="50" relative="1" as="geometry">
            <mxPoint x="460" y="322" as="sourcePoint" />
            <mxPoint x="410" y="282" as="targetPoint" />
          </mxGeometry>
        </mxCell>
        <mxCell id="HwC7duI9NQPxEm3EM6SP-31" value="Registro&lt;div&gt;aplicacion&lt;/div&gt;" style="rounded=1;whiteSpace=wrap;html=1;strokeWidth=2;" vertex="1" parent="1">
          <mxGeometry x="310" y="310" width="120" height="60" as="geometry" />
        </mxCell>
        <mxCell id="HwC7duI9NQPxEm3EM6SP-32" value="tiene" style="rhombus;whiteSpace=wrap;html=1;" vertex="1" parent="1">
          <mxGeometry x="495" y="301" width="80" height="80" as="geometry" />
        </mxCell>
        <mxCell id="HwC7duI9NQPxEm3EM6SP-33" value="" style="endArrow=none;html=1;rounded=0;exitX=0;exitY=0.5;exitDx=0;exitDy=0;entryX=1;entryY=0.5;entryDx=0;entryDy=0;" edge="1" parent="1" source="HwC7duI9NQPxEm3EM6SP-32">
          <mxGeometry width="50" height="50" relative="1" as="geometry">
            <mxPoint x="690" y="371" as="sourcePoint" />
            <mxPoint x="430" y="341" as="targetPoint" />
          </mxGeometry>
        </mxCell>
        <mxCell id="HwC7duI9NQPxEm3EM6SP-34" value="&lt;b&gt;n&lt;/b&gt;" style="text;html=1;align=center;verticalAlign=middle;resizable=0;points=[];autosize=1;strokeColor=none;fillColor=none;" vertex="1" parent="1">
          <mxGeometry x="490" y="289" width="30" height="30" as="geometry" />
        </mxCell>
        <mxCell id="HwC7duI9NQPxEm3EM6SP-35" value="&lt;b&gt;1&lt;/b&gt;" style="text;html=1;align=center;verticalAlign=middle;resizable=0;points=[];autosize=1;strokeColor=none;fillColor=none;" vertex="1" parent="1">
          <mxGeometry x="555" y="289" width="30" height="30" as="geometry" />
        </mxCell>
        <mxCell id="HwC7duI9NQPxEm3EM6SP-36" value="paciente" style="rounded=1;whiteSpace=wrap;html=1;strokeWidth=2;" vertex="1" parent="1">
          <mxGeometry x="620" y="311" width="120" height="60" as="geometry" />
        </mxCell>
        <mxCell id="HwC7duI9NQPxEm3EM6SP-37" value="" style="endArrow=none;html=1;rounded=0;exitX=1;exitY=0.5;exitDx=0;exitDy=0;" edge="1" parent="1" source="HwC7duI9NQPxEm3EM6SP-32">
          <mxGeometry width="50" height="50" relative="1" as="geometry">
            <mxPoint x="670" y="381" as="sourcePoint" />
            <mxPoint x="620" y="341" as="targetPoint" />
          </mxGeometry>
        </mxCell>
        <mxCell id="HwC7duI9NQPxEm3EM6SP-40" value="" style="endArrow=none;html=1;rounded=0;exitX=0;exitY=0.25;exitDx=0;exitDy=0;" edge="1" parent="1" target="HwC7duI9NQPxEm3EM6SP-41" source="HwC7duI9NQPxEm3EM6SP-31">
          <mxGeometry width="50" height="50" relative="1" as="geometry">
            <mxPoint x="315" y="371" as="sourcePoint" />
            <mxPoint x="315" y="411" as="targetPoint" />
          </mxGeometry>
        </mxCell>
        <mxCell id="HwC7duI9NQPxEm3EM6SP-41" value="&lt;b&gt;&lt;u&gt;cod&lt;/u&gt;&lt;/b&gt;&lt;div&gt;&lt;b&gt;&lt;u&gt;registro&lt;/u&gt;&lt;/b&gt;&lt;/div&gt;" style="ellipse;whiteSpace=wrap;html=1;" vertex="1" parent="1">
          <mxGeometry x="220" y="301" width="60" height="49" as="geometry" />
        </mxCell>
        <mxCell id="HwC7duI9NQPxEm3EM6SP-42" value="&lt;u&gt;&lt;b&gt;lote&lt;/b&gt;&lt;/u&gt;" style="ellipse;whiteSpace=wrap;html=1;" vertex="1" parent="1">
          <mxGeometry x="210" y="370" width="60" height="50" as="geometry" />
        </mxCell>
        <mxCell id="HwC7duI9NQPxEm3EM6SP-43" value="" style="endArrow=none;html=1;rounded=0;exitX=0;exitY=0.75;exitDx=0;exitDy=0;entryX=1;entryY=0;entryDx=0;entryDy=0;" edge="1" parent="1" target="HwC7duI9NQPxEm3EM6SP-42" source="HwC7duI9NQPxEm3EM6SP-31">
          <mxGeometry width="50" height="50" relative="1" as="geometry">
            <mxPoint x="345" y="371" as="sourcePoint" />
            <mxPoint x="312" y="422" as="targetPoint" />
            <Array as="points" />
          </mxGeometry>
        </mxCell>
        <mxCell id="HwC7duI9NQPxEm3EM6SP-44" value="" style="endArrow=none;html=1;rounded=0;exitX=0;exitY=1;exitDx=0;exitDy=0;" edge="1" parent="1" target="HwC7duI9NQPxEm3EM6SP-45">
          <mxGeometry width="50" height="50" relative="1" as="geometry">
            <mxPoint x="353" y="370" as="sourcePoint" />
            <mxPoint x="353" y="410" as="targetPoint" />
          </mxGeometry>
        </mxCell>
        <mxCell id="HwC7duI9NQPxEm3EM6SP-45" value="&lt;b&gt;&lt;u&gt;cod&lt;/u&gt;&lt;/b&gt;&lt;div&gt;&lt;b&gt;&lt;u&gt;paciente&lt;/u&gt;&lt;/b&gt;&lt;/div&gt;" style="ellipse;whiteSpace=wrap;html=1;" vertex="1" parent="1">
          <mxGeometry x="270" y="401" width="60" height="50" as="geometry" />
        </mxCell>
        <mxCell id="HwC7duI9NQPxEm3EM6SP-46" value="fecha&lt;div&gt;aplicacion&lt;/div&gt;" style="ellipse;whiteSpace=wrap;html=1;" vertex="1" parent="1">
          <mxGeometry x="335" y="401" width="60" height="50" as="geometry" />
        </mxCell>
        <mxCell id="HwC7duI9NQPxEm3EM6SP-47" value="" style="endArrow=none;html=1;rounded=0;exitX=0.5;exitY=1;exitDx=0;exitDy=0;entryX=0.5;entryY=0;entryDx=0;entryDy=0;" edge="1" parent="1" target="HwC7duI9NQPxEm3EM6SP-46" source="HwC7duI9NQPxEm3EM6SP-31">
          <mxGeometry width="50" height="50" relative="1" as="geometry">
            <mxPoint x="383" y="370" as="sourcePoint" />
            <mxPoint x="350" y="421" as="targetPoint" />
            <Array as="points" />
          </mxGeometry>
        </mxCell>
        <mxCell id="HwC7duI9NQPxEm3EM6SP-48" value="" style="endArrow=none;html=1;rounded=0;exitX=0;exitY=1;exitDx=0;exitDy=0;" edge="1" parent="1" target="HwC7duI9NQPxEm3EM6SP-49">
          <mxGeometry width="50" height="50" relative="1" as="geometry">
            <mxPoint x="653" y="371" as="sourcePoint" />
            <mxPoint x="653" y="411" as="targetPoint" />
          </mxGeometry>
        </mxCell>
        <mxCell id="HwC7duI9NQPxEm3EM6SP-49" value="&lt;b&gt;&lt;u&gt;cod&lt;/u&gt;&lt;/b&gt;&lt;div&gt;&lt;b&gt;&lt;u&gt;paciente&lt;/u&gt;&lt;/b&gt;&lt;/div&gt;" style="ellipse;whiteSpace=wrap;html=1;" vertex="1" parent="1">
          <mxGeometry x="575" y="390" width="60" height="50" as="geometry" />
        </mxCell>
        <mxCell id="HwC7duI9NQPxEm3EM6SP-50" value="&lt;b&gt;&lt;u&gt;cod&lt;/u&gt;&lt;/b&gt;&lt;div&gt;&lt;b&gt;&lt;u&gt;registro&lt;/u&gt;&lt;/b&gt;&lt;/div&gt;" style="ellipse;whiteSpace=wrap;html=1;" vertex="1" parent="1">
          <mxGeometry x="650" y="410" width="60" height="50" as="geometry" />
        </mxCell>
        <mxCell id="HwC7duI9NQPxEm3EM6SP-51" value="" style="endArrow=none;html=1;rounded=0;exitX=0.25;exitY=1;exitDx=0;exitDy=0;entryX=0.5;entryY=0;entryDx=0;entryDy=0;" edge="1" parent="1" target="HwC7duI9NQPxEm3EM6SP-50">
          <mxGeometry width="50" height="50" relative="1" as="geometry">
            <mxPoint x="683" y="371" as="sourcePoint" />
            <mxPoint x="650" y="422" as="targetPoint" />
            <Array as="points" />
          </mxGeometry>
        </mxCell>
        <mxCell id="HwC7duI9NQPxEm3EM6SP-52" value="enfermero" style="ellipse;whiteSpace=wrap;html=1;" vertex="1" parent="1">
          <mxGeometry x="408" y="401" width="60" height="50" as="geometry" />
        </mxCell>
        <mxCell id="HwC7duI9NQPxEm3EM6SP-53" value="" style="endArrow=none;html=1;rounded=0;exitX=0.883;exitY=1;exitDx=0;exitDy=0;entryX=0.5;entryY=0;entryDx=0;entryDy=0;exitPerimeter=0;" edge="1" parent="1" target="HwC7duI9NQPxEm3EM6SP-52" source="HwC7duI9NQPxEm3EM6SP-31">
          <mxGeometry width="50" height="50" relative="1" as="geometry">
            <mxPoint x="433" y="380" as="sourcePoint" />
            <mxPoint x="400" y="431" as="targetPoint" />
            <Array as="points" />
          </mxGeometry>
        </mxCell>
        <mxCell id="HwC7duI9NQPxEm3EM6SP-54" value="cantidad aplicaciones" style="ellipse;whiteSpace=wrap;html=1;" vertex="1" parent="1">
          <mxGeometry x="720" y="391" width="70" height="60" as="geometry" />
        </mxCell>
        <mxCell id="HwC7duI9NQPxEm3EM6SP-55" value="" style="endArrow=none;html=1;rounded=0;exitX=0.75;exitY=1;exitDx=0;exitDy=0;entryX=0.333;entryY=0.06;entryDx=0;entryDy=0;entryPerimeter=0;" edge="1" parent="1" target="HwC7duI9NQPxEm3EM6SP-54" source="HwC7duI9NQPxEm3EM6SP-36">
          <mxGeometry width="50" height="50" relative="1" as="geometry">
            <mxPoint x="733" y="370" as="sourcePoint" />
            <mxPoint x="700" y="421" as="targetPoint" />
            <Array as="points" />
          </mxGeometry>
        </mxCell>
      </root>
    </mxGraphModel>
  </diagram>
</mxfile>
